<svg xmlns="http://www.w3.org/2000/svg" viewBox="29.4 0 61.4 28">
  <g>
    <path fill="currentColor" d="M79.1,23h-3.4v-7.1c0-1-1-1.6-1.8-1.7s-2.2,0-3.2.7v8.1h-3.4v-11.4h2.9c.1,0,.2.9.3,1.1,1.1-1,2.4-1.3,3.8-1.3,2.6,0,4.6,1,4.8,3.9v7.8Z"/>
    <rect fill="currentColor" x="48.6" y="7.4" width="3.4" height="15.6"/>
    <rect fill="currentColor" x="29.6" y="11.6" width="3.4" height="11.4"/>
    <path fill="currentColor" d="M29.6,9.2c0,0,0-.2,0-.3.2-2.1,3.4-1.9,3.4.1s-3.2,2.3-3.4.1Z"/>
    <path fill="currentColor" d="M87,3.6c.2,0,.1.2.1.4,0,.3-.2.3-.5.3,0,.2,0,.3-.2.3,0,.3-.4.5-.6.5,0,.4-.2.5-.5.4,0,.2-.1.4-.3.5,0,.3-.1.5-.6.4,0,.3-.1.5-.5.5,0,.2,0,.4-.3.4l-.2.2c0,.3-.2.3-.5.3,0,.2,0,.4-.3.4-.1.1-.2.2-.3.4-.3,0-.4.1-.3.3-.1.2-.3.3-.5.4,0,0,.1.1.1.2.1,0,0,.2-.2.3-.4,0-.8.2-1.2.2h-.1c-.6,0-.5-.7,0-.6,0-.1.1-.2.2-.2,0-.3.4-.8.7-.8,0-.2.2-.2.4-.2,0-.2,0-.4.2-.4,0-.2.1-.3.4-.2,0-.3,0-.5.4-.4,0-.3,0-.5.4-.4,0-.4.1-.5.5-.5,0-.3,0-.4.2-.5,0-.3.1-.5.4-.4,0-.3,0-.4.4-.4,0-.2,0-.3,0-.5.1,0,.4-.1.4,0,0,0,.1.1.2.2,0-.2.2-.2.4-.2,0-.2,0-.2.2-.3h0c.1-.2.2-.4.3-.5,0,0,0-.1,0,0,0-.2.5-.2.6,0Z"/>
    <path fill="currentColor" d="M84.7,4.3c0,.1,0,.1.1.3,0,.5-.2.3-.3.4s0,.3,0,.3-.3,0-.4,0,0,.4,0,.4-.2,0-.2,0,0,.4,0,.4-.3,0-.4,0,0,.4,0,.4-.3,0-.4,0,0,.4,0,.4-.3,0-.4,0,0,.4,0,.4-.4,0-.4,0,0,.2,0,.2-.2,0-.2,0,0,.3,0,.4-.2,0-.3,0c-.1,0-.1.2-.2.2s-.2,0-.2,0-.4.5-.4.6c0,0,0,.2,0,.2s-.1,0-.2,0,0,.1,0,.2c0,0-.3,0-.4,0,0,.3,0,.2.3.3s.2,0,.1.2c-.4,0-.8.2-1.2.2v-1l2.4-1.7c0,0-.1,0-.2-.1h0c.3,0,.4-.3.5-.6.1,0,.2,0,.4,0,0-.3,0-.5.4-.4,0-.3,0-.5.3-.5,0-.3.2-.5.4-.2,0-.2,0-.3.2-.4,0-.2.2-.3.4-.2,0-.2.2-.2.3-.2,0-.1,0-.3.2-.2Z"/>
    <path fill="currentColor" d="M89.5,4.7c.1,0,.8-.2.8-.2,0,.1,0,.2,0,.3,0,0-.1.1-.2.2-.1.3-.2.4-.5.4,0,.3-.1.4-.5.4v.4c-.2,0-.2.2-.2.3-.2.2-.6.4-.8.6-.1,0-.2,0-.2.3l-.5.4c0,.2-.2.3-.5.2,0,.1-.1.2-.3.3v.2c-.2,0-.2.2-.3.4-.4.1-.7.5-.9.9-.3,0-.5.2-.5.6h-.1c0,0-.2.2-.2.3-.2.2-.3.4-.6.5-.1.3-.4.6-.7.5,0,.2-.1.4-.4.5,0,.3-.2.4-.5.5h-.2c0,.1-.2.1-.3.1v-.6c.2,0,.3,0,.3,0,0-.4.2-.5.6-.7v-.3c.3,0,.3-.1.4-.3.2,0,.5-.2.5-.5.2-.2.4-.4.7-.5.1-.2.3-.4.4-.6.4-.2.7-.5.8-1h0c.2-.2.4-.2.6-.3,0-.5.3-.7.8-.8.2-.2.4-.4.5-.7.3,0,.4-.1.5-.4h.2c0-.4.1-.6.6-.6,0-.3.2-.4.4-.4,0-.2,0-.4.2-.5Z"/>
    <path fill="currentColor" d="M87,4.7c0,.1-.2.2-.4.3,0,.3-.1.5-.5.4,0,.3-.2.4-.5.5,0,.2,0,.2-.1.4-.2.3-.5.6-.9.7-.1.3-.3.4-.5.3,0,.4-.5.9-.9.9,0,.2,0,.4-.3.4,0,.4-.2.6-.4.7,0,.2-.6.3-.7.3h0c-.2-.1-.3-.2-.2-.4s.1,0,.2,0,0-.1.1-.1.2,0,.2,0c0,0,0-.4,0-.4s.3,0,.4,0,0-.1,0-.2.2-.2.2-.2.1,0,.2,0c0,0,0-.4,0-.4s.3,0,.4,0,0-.1,0-.2.2-.2.2-.2.1,0,.2,0c0,0,0-.4,0-.4s.3,0,.4,0,0-.4,0-.4c0,0,.5,0,.6,0s0-.2,0-.3c0-.1.2-.2.3-.3s0-.3,0-.3c0,0,.4,0,.4,0s0-.4.1-.4.2,0,.3,0,0,0,0-.1.2,0,.2,0,0-.2,0-.2.2,0,.2,0c0,0,0-.2,0-.3s.3,0,.4-.1,0-.4,0-.5c0-.2.1-.4.3-.3,0,.5-.2,1-.3,1.5Z"/>
    <path fill="currentColor" d="M89.5,4.7l.2.2c-.3-.1-.2.3-.3.4s-.2,0-.2,0,0,.3-.2.4-.4,0-.5,0,0,.3,0,.4-.1,0-.2,0-.2.3-.2.4c0,0-.2,0-.3,0s-.2.5-.5.7-.4.1-.4.2c-.3.2-.2.5-.3.6s-.7.2-.8.3c0,.3-.2.6-.4.8-.3.1-.6.4-.7.7-.2.1-.4.3-.6.4l-.2.2c0,.3-.2.5-.6.4,0,.3,0,.5-.4.4,0,.3-.2.3-.4.2-.1.2-.3.2-.3,0,0,0,0-.2,0-.2,0-.3.3-.4.6-.4.2-.2.5-.4.7-.6v-.2c.3-.2.4-.3.6-.5,0,0,.2-.2.3-.2l.4-.5c.2-.3.5-.5.8-.6.2-.3.4-.6.7-.9.3,0,.4-.1.5-.4.1,0,.2,0,.2-.2.3-.2.5-.4.8-.8.1,0,.2,0,.1-.2.2-.1.4-.2.6-.3v-.3c.3,0,.3-.1.4-.3.2,0,.3-.1.2-.2,0,0,0,0,0,0,.2-.1.5,0,.7-.1Z"/>
    <path fill="currentColor" d="M87.8,5.3s0,0,0,0c.1.3,0,.5-.3.6-.1.3-.3.4-.6.4,0,.1-.1.2-.2.2,0,.4-.3.7-.7.7,0,.2,0,.3-.1.3v.2c-.3,0-.4.2-.4.5-.5,0-.8.4-1.1.9-.2,0-.2.1-.2.3-.2.1-.3.2-.5.3,0,.2-.1.3-.5.3.2.2-.5.9-.6.9-.1,0-.3-.2-.3-.4,0-.2,0-.3.1-.5.1-.1.2-.2.3-.3,0-.2.2-.3.4-.4,0-.2.1-.3.5-.3,0-.4.2-.6.4-.6,0-.2,0-.3.2-.3,0-.2.2-.2.4-.2,0-.1.2-.3.3-.3,0-.2.1-.3.4-.3,0-.4,0-.5.5-.6,0-.2.1-.3.4-.3,0-.4.2-.7.7-.7,0-.2,0-.5.2-.3,0,0,.1,0,.2,0,0-.3.2-.3.3,0Z"/>
    <path fill="currentColor" d="M82.1,5.1c0,.1,0,.2-.1.1h0c.2.1-.1.5-.2.5-.3-.1-.4,0-.5.2h-.2c0,.3,0,.6-.3.4.1.1.1.4-.1.3-.2-.1-1.4-.9-1.4-1v-1c1,.1,1.9.3,2.9.5Z"/>
    <path fill="currentColor" d="M84.4,3.7c0,0,.3.4.4.4,0,0,.2-.2.3-.3.4.1,0,.5-.3.4-.1.1-.1.3-.2.3s-.2,0-.3,0,0,.2,0,.2c0,0-.3,0-.4,0s0,.1,0,.2c0,0-.2,0-.2.2,0,.2.1.4-.2.3s0,0,0,0c-.2-.1-.2.2-.2.3s-.2,0-.2,0,0,.4,0,.4-.2,0-.3,0,0,.4-.1.4-.3,0-.4,0,0,.1,0,.2c0,0-.2.2-.2.3,0,0-.3,0-.4,0,0,0,0,0,0,0-.2-.4-.1-.6.3-.6,0-.4.1-.5.5-.5v-.6c-.1,0-.2-.2-.2-.3-.1,0-.3,0-.2-.1,0,0,.3,0,.3,0,0,0,.3,0,.4,0,0,0,0,0,0,0,0,0,0,0,0,0,0-.1.2-.2.4-.2,0-.5.1-.7.6-.7.2-.3.4-.5.8-.6Z"/>
    <path fill="currentColor" d="M88.5,7.8c0,0,.1.2.1.3,0,0-.7.8-.8.8l-.2.5c-.2,0-.4.1-.6.2,0,0,0,.1,0,.2,0,0,0,0,0,.1,0,.3-.2.3-.4.3,0,0-.2.2-.3.2-.1.3-.3.4-.5.5-.2.4-.4.5-.6.3-.1-.1-.2-.3-.3-.4,0-.1,0-.2,0-.4.5-.1.9-.4,1.1-.9.3-.1.4-.3.6-.5h.2c0-.2.1-.3.3-.3,0-.2.1-.4.4-.5,0-.3.1-.5.5-.4-.1-.1-.3-.3,0-.3.2.1.4.3.6.4Z"/>
    <path fill="currentColor" d="M85,3.9c.5-.7,1-1.4,1.5-2.1h1c0,.2,0,.4,0,.6,0,.1,0,.2-.2.2,0,.3-.1.6-.4.3,0,.3,0,.4-.3.3,0,.2,0,.3-.2.3,0,0,0,0,0,0,0,.2-.1.2-.3.2-.1.2-.7.9-.9.5,0,0-.2,0-.2,0s-.1-.1-.3,0c.1-.1.4-.2.3-.4Z"/>
    <path fill="currentColor" d="M83.8,2.9c0,.2,0,.2-.1.3-.4,0-.6.3-.7.7-.1.2-.5.4-.6.2-.1-.8-.3-1.5-.4-2.3h1c0,0,.7,1,.8,1.2Z"/>
    <path fill="currentColor" d="M87.5,5.1c.3,0,.6.2.2.2-.2-.1-.2,0-.3,0,0,0-.1,0-.2,0,0,0,0,0-.1,0,0,0,0,.3,0,.3s-.2,0-.4,0c-.4,0-.2.5-.3.6s-.4,0-.4,0,0,.2,0,.3-.2,0-.3,0,0,.5-.2.6,0,0-.1,0,0,0,0,0-.2,0-.2,0,0,.2,0,.2-.1,0-.2,0c0,0-.1.2-.2.3,0,0-.3,0-.3,0s0,.2,0,.2-.2,0-.2,0,0,.2,0,.2-.2,0-.3.1,0,.4-.2.5-.4,0-.4,0,0,.2,0,.2-.4.2-.4.2,0,.2,0,.2-.2,0-.2,0,0,.3-.2.2c0,0,0-.4,0-.4,0,0-.2,0-.3,0,0-.2.3-.3.5-.2.1-.2.2-.5.2-.7.2,0,.3,0,.4-.2h.1c.2-.3.4-.7.7-.4,0-.3.2-.5.5-.5,0-.4.1-.4.5-.4,0-.1,0-.2.1-.2-.2,0,0-.3.2-.1,0,0,0-.1.2-.1,0-.2,0-.3.1-.3,0-.2.1-.2.2,0h0c.2-.2.3-.3.4-.4-.3-.2,0-.7.4-.4,0,0,0-.1,0-.2.2,0,.4,0,.6,0Z"/>
    <path fill="currentColor" d="M87,4.9c-.2.1-.2.3-.1.4-.2,0-.3,0-.3,0s0,.3,0,.4c0,.1-.2.2-.3.2,0,.1,0,.2-.1.3,0,0-.1,0-.2,0,0,.1-.1.2-.1.4h-.1c-.3.1-.1.2-.2.2,0,.1-.1.2-.3.2,0,.2-.2.2-.3.3,0,.2-.2.4-.4.5,0,0,0,.2-.1.3-.1,0-.3,0-.4,0s-.2.4-.3.4-.1,0-.2,0,0,.1,0,.2c0,0-.3,0-.3,0s-.2.7-.2.8-.2,0-.2,0h-.3c-.2.2-.4.2-.7.3,0-.1.2-.1.2-.3,0,0,0,0,.1,0v.2c.1-.2.3-.1.5-.2s0-.1,0-.2.2,0,.3-.1c.2-.2.1-.5.2-.6s.2,0,.2-.2,0-.3,0-.3.2,0,.4,0,.5-.5.5-.5c0-.1,0-.3,0-.3,0,0,.3,0,.4,0s0-.2.1-.3.4-.1.5-.2.3-.4.4-.4.1,0,.2,0c0,0,0-.3,0-.4s.4,0,.4-.1,0-.2,0-.3.3,0,.4,0,0-.3.1-.4.4,0,.5-.2c0,0,0,.1,0,.2Z"/>
    <path fill="currentColor" d="M84.4,3.7c-.1.2-.4.3-.5.4s0,.2-.1.2c-.1.1-.3,0-.4.1-.3.1-.1.6-.2.6s-.2,0-.3,0c-.1,0-.2.1-.3.1s0-.1,0-.1c.1,0,0-.2,0-.3,0-.3,0-.5-.1-.8.5.1.6-.6.9-.8s.6,0,.6-.3c.2.3.4.5.6.8Z"/>
    <path fill="currentColor" d="M88.1,7.2s-.1.1-.2.2c-.1.2.2.1.2.4-.6,0-.4.1-.5.4s-.2,0-.2.1-.1.4-.2.4c0,0-.2,0-.2,0s0,.1,0,.2c0,0-.1,0-.2,0s-.2.3-.3.4-.2,0-.3.1c0,0,0,.2-.1.3s-.5.5-.6.5c-.1,0-.4.1-.4.1,0,0,.1.4-.1.3,0,0-.1-.1-.2-.2.1-.2.2-.6.4-.7s.2,0,.2,0,0-.1,0-.2c0,0,.6-.6.6-.6,0,0,.2,0,.2,0s0-.1,0-.2c0,0,.1,0,.2-.1s0-.2,0-.3c0-.1.2,0,.2-.1s0-.1,0-.2c0,0,.3,0,.4,0s0-.1,0-.2c.2-.2.4-.3.5-.5s0-.4.3-.2Z"/>
    <path fill="currentColor" d="M88.4,5.1c.1.3-.3.7-.6.7-.2.1-.3.3-.4.5-.1.1-.3.3-.3.4-.4,0-.5.3-.6.6h-.4c-.3.4-.5.7-.7,1.1-.2,0-.4.1-.6.3l-.5.8c-.4,0-.5.2-.5.5-.2.2-.5.4-.7.6-.2.4-.8.8-.9.1,0,0,0-.1,0-.2.1,0,.1.2.2.2.3.1.2,0,.3-.2s.3-.1.3-.2c0-.1,0-.4,0-.5s.4,0,.4,0,0-.2,0-.2.4,0,.4-.1,0-.2,0-.3.1,0,.2,0c0,0,.2-.3.2-.4s.4-.5.5-.5c.1,0,.3,0,.4,0s0-.3,0-.4.1,0,.2,0,.2-.3.2-.3c0,0,0-.3,0-.4s.4,0,.4,0,0-.2,0-.2.2,0,.2,0,0-.3,0-.4.1,0,.2,0,0-.1,0-.2c0,0,.4,0,.4,0,0,0,0-.2,0-.2s.1,0,.2,0,.2-.2.2-.2c0-.2,0-.2.1-.4,0-.1.2-.1.2,0,0-.3.3-.5.5-.3Z"/>
    <path fill="currentColor" d="M82,5.2s.3.2.3.2c0,0,0,.6,0,.7,0,.2-.4,0-.4,0,0,0,.2.6-.4.4v.4c-.3-.2-.5-.4-.8-.6.2-.2-.1-.3-.1-.3.1-.3.4,0,.4,0v-.5c.4.2.3,0,.4-.2s.5,0,.5,0,0-.1,0-.1.2,0,.2-.2Z"/>
    <path fill="currentColor" d="M85.7,8.5c0,.1,0,.6,0,.6s-.1,0-.2,0c0,0,0,.2,0,.2s-.3,0-.4.2,0,.2,0,.2-.2,0-.2,0,0,.2,0,.2-.1,0-.2,0c0,0,0,.2,0,.2s-.4,0-.5.2-.2.4-.2.4c0,0-.1,0-.2,0s0,.1,0,.2c0,0-.2,0-.2,0s0,.2,0,.2-.1,0-.2,0c-.1.1-.1.4-.1.4s-.1,0-.2,0,0,0,0,0c0,0-.3,0-.3.1,0,.3,0,.5-.4.5v-.2c0-.3,0-.5.1-.7.2.3.2,0,.2,0s.3,0,.4,0c0-.4.3-.2.3-.2s0-.3,0-.4.4,0,.4,0,0-.3.2-.4.5-.5.5-.5c0,0,.2,0,.2,0s0-.3.2-.4c.1-.1.6-.4.7-.6s.2-.5.3-.6Z"/>
    <path fill="currentColor" d="M90.4,4.9c0,.3,0,.5,0,.8-.5.3-1,.6-1.4,1l-.2-.3c.3.1.2-.3.4-.5s.3,0,.4,0,0-.3.1-.4.3,0,.4,0c0,0,0-.5.5-.4Z"/>
    <path fill="currentColor" d="M88.9,4.8c0,0,.1,0,.2,0,0,.4-.2.2-.3.3s0,.1,0,.2c0,0-.1,0-.2,0s0,.3-.1.3-.5.1-.5.2,0,.2,0,.3-.1,0-.2,0c0,0-.2.2-.3.3s-.1.3-.1.3c0,0-.2,0-.2,0s0,.1,0,.2c0,0-.1,0-.2,0s0,.1,0,.2c-.1.1-.3.1-.4.2-.3.2-.4.4-.5.6s-.2,0-.2.2,0,.2,0,.2-.1,0-.2,0-.8.7-.8.8,0,.2-.1.3c0,0-.2,0-.2,0s0,.1,0,.2c0,0-.1,0-.2,0s0,.1,0,.2c0,0-.2,0-.3.2s-.1.3-.1.3c0,0-.2,0-.2,0-.1,0-.2.3-.3.4s-.6.2-.7.3,0,.2-.2.2c0-.2.1-.5.2-.7.2,0,0,.4.4.3s.4-.4.5-.5c.2-.2.2-.2.4-.4s.1,0,.2,0c0,0,0-.3,0-.3s.5-.2.6-.3c.3-.3.2-.8.8-1s.3,0,.4-.2,0-.2,0-.2.2,0,.2,0c0,0,0-.2,0-.3s.1,0,.2,0c0,0,0-.2.2-.2s.2,0,.3,0,0-.3,0-.4.3-.2.3-.3c0,0,.2,0,.3,0s0-.1,0-.2.1,0,.2,0c0,0,0-.2,0-.3,0-.2.6-.3.7-.4s.2-.4.3-.5c0-.2.1-.2.4-.3Z"/>
    <path fill="currentColor" d="M87,9.9c0,.3,0,.5-.4.4h0c0,.6-.1.8-.5.9.3.3.1.5-.2.6l-.3-.3c-.1-.2-.2-.3-.3-.4.5.1.4-.2.5-.4s.2,0,.3,0,.2-.3.3-.4.2,0,.2,0,0-.2,0-.2c0,0,.4,0,.5-.2,0,0,0,0,0,0Z"/>
    <path fill="currentColor" d="M84.6,10.7c-.3.5-.6.9-1,1.4h-.2c0,0-.3.2-.4.3,0,.2,0,.3,0,.5-.1,0-.6,0-.8,0,0-.3.4-.2.5-.4s0-.3.2-.4.2-.1.2-.2,0-.3,0-.3.2,0,.2,0,.3-.2.3-.3c.2-.3,0-.2.4-.4s.2,0,.4-.3Z"/>
    <path fill="currentColor" d="M87.3,11.2c0,.2,0,.5.1.7,0,.1,0,.2-.3.2h-.4c0,.4-.1.6-.3.6-.2-.2-.3-.4-.4-.6,0-.2,0-.3.5-.4,0-.4.1-.5.5-.5,0-.3.3-.4.4-.1Z"/>
    <path fill="currentColor" d="M89,8.1c.1,0,0,.4,0,.5-.3,0-.6.2-.6.5-.2.4-1,.5-1.3.5,0-.2.3-.1.5-.2s.2-.4.3-.5.1,0,.2,0c.2-.2.4-.4.5-.6s.2,0,.1-.3c.2.1.3.2.4.3Z"/>
    <path fill="currentColor" d="M89,8.1c0,0,.1.1.2.2.1.3,0,.8-.5.8,0,.2-.2.3-.4.4,0,.2,0,.3-.3.2-.2,0-.6,0-.8-.1s-.1,0-.1.2c0,0,0,0,0-.2l.9-.2c0-.1.3-.2.3-.2,0,0,0-.3,0-.4.1-.2.4-.3.6-.3,0-.2,0-.2,0-.4Z"/>
    <path fill="currentColor" d="M87.3,11.2c-.4-.2-.2.1-.3.2,0,.1-.3,0-.4,0s0,.4,0,.4-.5.1-.6.1v.2c-.2-.2-.3-.3-.4-.5.1,0,.2.1.3.2s.1-.1.3,0c0-.1,0-.3,0-.4.3,0,.4-.1.5-.4.3,0,.4-.1.4-.5h.1c.1.2.1.5.2.8Z"/>
    <path fill="currentColor" d="M87.3,3.3c0,.1-.2,0-.2.1,0,.1,0,.1-.1.2s-.4,0-.6,0c0,0,0-.4,0-.4s.3,0,.3,0,0-.4.1-.4c.2.5.2,0,.3-.2s.2,0,.3-.2c0,.3-.1.6-.2,1Z"/>
    <path fill="currentColor" d="M89.8,8.7c.1.1,0,.2-.2.3,0,.2-.2.4-.4.5,0,.3-.2.3-.5.2-.1,0-.2,0-.3,0,0-.5.3-.6.7-.6,0-.2,0-.4.2-.5-.1,0,0-.3,0-.3.2.1.3.3.5.4Z"/>
    <path fill="currentColor" d="M90.1,8.9c.3.4-.2.7-.6.5,0,.5-.2.5-.6.4-.1,0-.2,0-.3,0,.5,0,.3-.1.4-.3s.2-.1.3-.2,0-.2.1-.3c0-.1.3-.1.3-.3.1,0,.2,0,.3.2Z"/>
    <path fill="currentColor" d="M89.3,8.3c-.2.2.1.1.1.2,0,.1-.2.2-.2.2,0,.1,0,.4,0,.5s-.4,0-.6.2,0,.4-.2.4c-.1,0-.2,0-.3,0,.2,0,.2-.3.2-.3,0-.1.3-.3.3-.3,0,0,0-.1,0-.2,0,0,.2,0,.3,0s.3-.5.3-.7c0,0,0,0,.1,0Z"/>
    <path fill="currentColor" d="M90.4,9.3c0,0,0,0,0,.1,0,.5-.1.7-.6.6-.2,0-.4,0-.7-.1.6,0,.4-.4.5-.5s.9.3.7-.4c.1.1.2,0,.2.3Z"/>
    <path fill="currentColor" d="M87.4,12.2c0,.2.2.4.1.7-.3,0-.9.1-1.1-.1,0,0,0-.1.2-.2.2-.3.5-.6.8-.4Z"/>
    <path fill="currentColor" d="M87.1,10.3c0,.2,0,.6-.2.6s-.3,0-.3,0-.1.5-.5.3c0-.2,0,0,.2-.1.4-.1,0-.6.2-.8s.5.2.5-.4c0,0,0,.2,0,.3Z"/>
    <path fill="currentColor" d="M87.4,12.2c-.1,0-.3,0-.4,0s-.3.3-.3.4-.2,0-.3,0c0,0,0,0,0-.1.2,0,.1-.5.2-.6s.6,0,.8-.2c0,.1,0,.2,0,.3Z"/>
    <path fill="currentColor" d="M88.8,4.8s0,0,0,0c0,.2-.3,0-.3.1s0,0,0,.1,0,0,0,0c-.5-.1-.2.4-.4.4-.3.1,0-.3-.3-.2,0,0,0,0,0,0,0,0,.1-.2.1-.2-.1,0-.2,0-.3,0,.4-.1.9-.2,1.3-.2Z"/>
    <path fill="currentColor" d="M90.4,9.3c0,.3,0,.6,0,.9,0,0-.6-.2-.7-.2,0,0,.5-.2.5-.2,0-.1,0-.6.2-.5Z"/>
    <path fill="currentColor" d="M83.6,12.1c0,.1-.5.8-.6.8-.2,0,0-.6,0-.6s.1,0,.1,0,0-.1,0-.2c.1,0,.3,0,.4,0Z"/>
    <path fill="currentColor" d="M87,4.9c0,0,0,.2,0,.2s.1,0,0,.2c-.4-.1,0-.3.1-.4Z"/>
    <path fill="currentColor" d="M45.8,13.4c-1.8-2.4-5.6-2.6-7.8-.6l-.2-1.2h-2.9s0,.1,0,.2v14.3s0,.2,0,.2h3.3v-3.5c2.7.9,6.3.2,7.9-2.2,1.3-2.1,1.2-5.2-.2-7.2ZM41.7,20.3c-1,.4-2.5.1-3.5-.2v-5.1c1.2-.7,3.1-1.4,4.3-.4,1.7,1.4,1.3,4.9-.8,5.6Z"/>
    <path fill="currentColor" d="M65.6,12h0c-3.4-.6-7.7-1.5-10.5,1.1-2.5,2.3-2.3,6.7.3,8.9,1.9,1.6,5.1,1.4,7.1,0,.1,0,.1.9.3,1h2.9v-10.9ZM60.6,20.3c-1.3.2-2.6.2-3.4-1-1.1-1.7-.6-4.2,1.3-5,1.1-.4,2.5-.1,3.6,0v5.4c-.4.3-1,.5-1.6.6Z"/>
    <path fill="currentColor" d="M86.3,3.6c0,.4-.2.2-.2.3s0,.2,0,.3-.1,0-.2,0,0,.1,0,.2c-.1.1-.4-.1-.3.2-.2,0-.4-.1-.3-.3,0,0,0,0,.2,0,.3-.1.5-.6.9-.8Z"/>
    <path fill="currentColor" d="M87.3,5.4s0,0,0-.1c.1,0,.2,0,.1.1,0,0-.1,0-.2,0Z"/>
    <path fill="currentColor" d="M85.4,6.8c.1.5-.4.3-.4.3s0,.3,0,.4-.3,0-.3.1,0,.3-.3.4c0,0,0-.4,0-.4s.2,0,.2,0,0-.1,0-.2,0,0,.1,0,0-.2,0-.2.2,0,.2,0c.1,0,0-.2.1-.2s.4,0,.4-.1Z"/>
    <path fill="currentColor" d="M86.1,6.2c0-.5.1-.3.4-.4,0,0,0,.2,0,.2s-.4.2-.4.2Z"/>
    <path fill="currentColor" d="M85.9,6.2c0,.4,0,.4-.3.4.1-.3,0-.4.3-.4Z"/>
  </g>
</svg>
