<svg width="324" height="60" viewBox="0 0 324 60" fill="none" xmlns="http://www.w3.org/2000/svg">
<g clip-path="url(#clip0_408_442)">
<path d="M11.5949 33.6039C9.72494 34.6439 7.85494 35.6739 5.99494 36.7239C2.85494 38.4939 0.204941 37.0339 0.204941 33.4739C0.184941 23.8039 0.184941 14.1439 0.204941 4.47393C0.214941 0.993932 2.87494 -0.516068 5.91494 1.23393C16.1349 7.11393 26.3449 13.0239 36.5549 18.9239C34.0149 20.7339 31.2149 22.1239 28.5349 23.7039C22.9049 27.0239 17.2449 30.3039 11.5949 33.5939V33.6039Z" fill="white"/>
<path d="M11.5952 33.604C17.2452 30.314 22.9052 27.034 28.5352 23.714C31.2152 22.134 34.0152 20.744 36.5552 18.934C37.3352 18.494 38.0952 18.014 38.8952 17.634C41.0552 16.604 43.3352 17.914 43.3452 20.294C43.3952 29.044 43.3852 37.804 43.3452 46.554C43.3352 49.214 40.8552 50.464 38.4452 49.074C31.8552 45.284 25.2752 41.474 18.6952 37.674C16.3352 36.314 13.9652 34.954 11.5952 33.604Z" fill="#f1870e"/>
<path d="M182.365 27.5838C182.415 27.5138 182.505 27.4438 182.515 27.3638C182.688 25.7238 183.645 24.9038 185.385 24.9038C187.125 24.9038 188.035 25.8005 188.115 27.5938C188.115 33.9138 188.115 40.2438 188.115 46.5638C188.115 54.3638 183.585 58.9138 175.785 59.0138C171.645 59.0638 167.665 58.5338 163.975 56.4538C162.805 55.7938 162.575 55.1838 163.415 54.0938C164.075 53.2338 164.375 51.8638 165.215 51.4338C166.045 51.0038 166.955 52.2438 167.895 52.6338C170.475 53.7238 173.135 54.1938 175.915 53.9638C180.385 53.5838 182.805 50.4438 182.085 45.7538C178.375 48.7338 174.255 49.2438 169.855 47.9938C167.115 47.2238 164.935 45.6238 163.365 43.2638C160.285 38.6238 160.925 31.9838 164.805 28.1238C169.265 23.6838 176.195 23.4738 182.375 27.5938L182.365 27.5838ZM174.855 43.5538C179.065 43.5538 181.965 41.1038 182.355 37.1938C182.715 33.6238 180.225 30.3538 176.665 29.7538C172.245 29.0038 168.595 30.9738 167.605 34.6438C166.315 39.4338 169.655 43.5438 174.845 43.5538H174.855Z" fill="white"/>
<path d="M54.3848 33.484C54.3848 28.504 54.4248 23.524 54.3548 18.544C54.3348 17.394 54.6748 17.154 55.7648 17.174C59.9948 17.244 64.2348 17.214 68.4648 17.194C70.1248 17.194 71.7448 17.434 73.3248 17.884C78.8048 19.444 81.8448 23.574 81.6648 29.134C81.4748 34.764 78.0748 38.694 72.3048 39.894C68.9048 40.604 65.4648 40.384 62.0348 40.364C60.8948 40.364 60.4648 40.614 60.5148 41.834C60.6148 44.124 60.5148 46.414 60.5648 48.704C60.5848 49.614 60.1848 49.784 59.4048 49.754C58.1148 49.704 56.8148 49.674 55.5248 49.754C54.5548 49.814 54.3748 49.434 54.3848 48.554C54.4248 43.524 54.4048 38.494 54.4048 33.464L54.3848 33.484ZM60.5448 28.634C60.5448 30.474 60.5648 32.324 60.5448 34.164C60.5448 34.814 60.6548 35.164 61.4348 35.154C63.9248 35.114 66.4248 35.224 68.9048 35.104C73.0248 34.894 75.4448 32.564 75.5648 28.894C75.6848 25.324 73.4248 23.014 69.2948 22.494C66.7148 22.174 64.1148 22.434 61.5348 22.334C60.6948 22.304 60.5348 22.694 60.5548 23.414C60.5848 25.154 60.5548 26.904 60.5648 28.644L60.5448 28.634Z" fill="white"/>
<path d="M150.285 47.4139C147.105 50.2339 143.355 50.5639 139.415 49.5739C135.495 48.5839 133.415 45.7739 133.605 42.0039C133.775 38.6139 136.215 36.1639 140.085 35.4739C142.955 34.9639 145.855 35.0839 148.735 35.1839C150.235 35.2339 150.395 34.6839 150.135 33.4639C149.695 31.4339 148.445 30.2039 146.475 29.7839C143.265 29.0939 140.235 29.6739 137.455 31.4139C136.795 31.8239 136.435 31.8939 136.115 31.1239C135.925 30.6639 135.665 30.2439 135.425 29.8039C134.155 27.4239 134.135 27.3939 136.545 26.3139C140.535 24.5239 144.705 24.1239 148.955 25.0739C153.225 26.0239 155.885 29.1239 156.045 33.5539C156.225 38.6239 156.115 43.7139 156.165 48.7939C156.165 49.6039 155.875 49.8239 155.115 49.7739C154.175 49.7139 153.215 49.6939 152.275 49.7739C151.015 49.8839 150.235 49.6239 150.515 48.1339C150.555 47.9139 150.585 47.6439 150.265 47.4339L150.285 47.4139ZM150.225 40.7439C149.975 40.2939 150.775 39.1339 149.555 39.1139C146.985 39.0739 144.385 38.7839 141.845 39.3839C140.435 39.7139 139.435 40.5839 139.355 42.1539C139.275 43.6739 140.055 44.7639 141.435 45.2539C143.805 46.0939 146.135 45.9039 148.255 44.4639C149.495 43.6239 150.365 42.5139 150.225 40.7439Z" fill="white"/>
<path d="M102.675 47.2739C98.825 50.4839 94.705 50.7439 90.435 49.1739C87.035 47.9239 85.425 45.0339 85.815 41.5039C86.165 38.3939 88.635 36.1039 92.325 35.4639C95.295 34.9539 98.295 35.1639 101.275 35.1639C102.265 35.1639 102.565 34.9339 102.395 33.9039C101.935 31.1939 100.145 29.6639 97.025 29.5339C94.375 29.4239 91.8651 29.9439 89.6251 31.4239C88.9751 31.8539 88.6151 31.9139 88.3051 31.1139C88.1451 30.7039 87.8751 30.3239 87.6651 29.9339C86.2851 27.4139 86.275 27.3439 88.895 26.2239C93.055 24.4539 97.365 24.0439 101.745 25.2439C105.645 26.3139 107.925 29.0439 108.135 32.9839C108.425 38.2939 108.245 43.6339 108.295 48.9639C108.295 49.6739 107.935 49.7639 107.365 49.7539C106.315 49.7239 105.265 49.6639 104.225 49.7639C103.045 49.8839 102.585 49.4739 102.755 48.2939C102.795 48.0139 102.705 47.7139 102.655 47.2639L102.675 47.2739ZM98.715 39.0739C97.025 39.0839 95.325 38.9339 93.685 39.4939C92.505 39.8939 91.715 40.6839 91.565 41.9439C91.415 43.1839 91.905 44.1839 92.935 44.8939C95.715 46.7839 100.735 45.4739 102.195 42.4939C102.685 41.4939 102.715 40.3539 102.375 39.4439C102.065 38.6439 100.955 39.1839 100.215 39.0939C99.725 39.0339 99.225 39.0839 98.725 39.0839L98.715 39.0739Z" fill="white"/>
<path d="M285.915 47.184C282.195 50.514 278.025 50.724 273.705 49.194C270.365 48.014 268.605 44.994 269.005 41.714C269.415 38.334 271.815 36.074 275.615 35.444C278.585 34.954 281.585 35.144 284.565 35.164C285.555 35.164 285.725 34.854 285.625 33.964C285.315 31.344 283.375 29.674 280.305 29.534C277.605 29.404 275.045 29.954 272.775 31.454C272.155 31.864 271.865 31.854 271.565 31.174C271.285 30.544 270.915 29.944 270.585 29.334C269.625 27.544 269.605 27.504 271.365 26.614C275.635 24.474 280.135 24.004 284.725 25.164C289.095 26.274 291.465 29.534 291.545 34.354C291.625 39.084 291.535 43.814 291.585 48.544C291.595 49.584 291.215 49.824 290.285 49.754C289.345 49.684 288.385 49.664 287.445 49.754C286.285 49.874 285.765 49.494 285.955 48.294C286.005 47.974 285.935 47.634 285.915 47.184ZM281.975 39.074C280.385 39.074 278.785 38.954 277.235 39.384C276.025 39.724 275.055 40.384 274.845 41.744C274.655 43.024 275.015 44.094 276.115 44.864C278.825 46.764 283.905 45.504 285.375 42.544C285.895 41.504 285.905 40.304 285.515 39.364C285.225 38.664 284.075 39.164 283.315 39.074C282.875 39.024 282.425 39.074 281.975 39.074Z" fill="white"/>
<path d="M206.935 24.614C212.635 24.644 217.245 27.534 219.185 32.284C221.145 37.084 220.065 42.984 216.435 46.384C212.435 50.134 207.625 50.854 202.525 49.404C197.965 48.114 195.035 45.014 193.945 40.344C191.965 31.804 197.965 24.564 206.935 24.614ZM214.165 37.374C214.215 32.824 211.245 29.664 206.895 29.634C202.625 29.594 199.605 32.674 199.525 37.144C199.435 41.634 202.485 44.954 206.735 45.004C211.025 45.054 214.125 41.874 214.165 37.374Z" fill="white"/>
<path d="M304.595 27.814C307.385 25.064 310.655 24.404 314.215 24.664C319.505 25.044 323.115 28.614 323.285 33.924C323.445 38.844 323.345 43.784 323.405 48.704C323.415 49.604 323.065 49.784 322.265 49.754C321.075 49.694 319.865 49.664 318.685 49.754C317.635 49.834 317.445 49.394 317.455 48.474C317.495 44.594 317.475 40.704 317.475 36.824C317.475 36.374 317.485 35.924 317.455 35.484C317.225 32.074 315.445 30.024 312.505 29.764C308.645 29.434 305.845 31.304 305.055 34.694C304.645 36.474 304.805 38.264 304.795 40.044C304.765 42.934 304.765 45.824 304.795 48.704C304.795 49.454 304.625 49.794 303.805 49.744C302.225 49.634 300.215 50.364 299.175 49.474C298.175 48.624 298.875 46.564 298.865 45.044C298.825 38.774 298.865 32.494 298.825 26.224C298.825 25.224 299.035 24.734 300.115 24.884C300.605 24.954 301.105 24.894 301.605 24.894C303.419 24.894 304.419 25.8607 304.605 27.794L304.595 27.814Z" fill="white"/>
<path d="M231.225 27.7938C234.495 24.7538 238.235 24.1238 242.225 24.8538C247.005 25.7238 249.885 29.2138 250.005 34.2238C250.115 39.0538 250.005 43.8838 250.055 48.7138C250.055 49.6138 249.715 49.7938 248.915 49.7638C247.725 49.7138 246.525 49.6938 245.325 49.7638C244.385 49.8238 244.145 49.4638 244.155 48.5738C244.195 44.8938 244.175 41.2038 244.175 37.5238C244.175 37.0738 244.185 36.6238 244.175 36.1838C244.015 31.8238 242.095 29.7538 238.225 29.7738C234.235 29.7938 231.575 32.3438 231.505 36.3938C231.435 40.3738 231.455 44.3638 231.505 48.3438C231.525 49.4038 231.335 49.9038 230.135 49.7738C229.055 49.6638 227.945 49.6838 226.855 49.7738C225.805 49.8538 225.505 49.4938 225.515 48.4438C225.565 43.1638 225.535 37.8938 225.535 32.6138C225.535 30.5238 225.615 28.4238 225.505 26.3438C225.435 25.1038 225.905 24.7738 227.015 24.9138C227.505 24.9738 228.015 24.9238 228.505 24.9238C230.245 24.9238 231.151 25.8838 231.225 27.8038V27.7938Z" fill="white"/>
<path d="M116.435 36.4938C116.435 34.6038 116.395 32.7138 116.455 30.8238C116.485 29.9638 116.185 29.7538 115.355 29.7338C112.415 29.6838 112.465 29.6538 112.395 26.6738C112.365 25.4938 112.485 24.8838 113.955 24.9638C116.435 25.1038 116.435 24.9938 116.435 22.4838C116.435 20.4305 117.478 19.4038 119.565 19.4038C121.425 19.4038 122.355 20.3405 122.355 22.2138C122.355 24.0871 123.291 25.0171 125.165 25.0038H125.465C129.325 25.0038 129.415 25.1338 128.955 29.0438C128.885 29.6638 128.625 29.7538 128.115 29.7538C126.575 29.7338 125.025 29.8038 123.485 29.7238C122.525 29.6738 122.325 30.0138 122.335 30.9038C122.385 34.2838 122.355 37.6738 122.355 41.0538C122.355 44.5738 124.675 46.1338 127.905 44.6838C128.935 44.2238 129.295 44.4038 129.515 45.4038C129.575 45.6938 129.725 45.9638 129.835 46.2438C130.805 48.7238 130.765 48.8038 128.215 49.5738C126.115 50.2138 123.985 50.2138 121.885 49.6438C118.395 48.7038 116.555 46.0738 116.445 41.8638C116.395 40.0738 116.445 38.2838 116.445 36.4938H116.435Z" fill="white"/>
<path d="M263.195 37.3638C263.195 41.1038 263.165 44.8338 263.215 48.5738C263.225 49.4638 263.015 49.8238 262.055 49.7638C260.865 49.6838 259.655 49.6838 258.465 49.7638C257.495 49.8338 257.315 49.4138 257.315 48.5438C257.345 41.0238 257.345 33.5038 257.315 25.9738C257.315 25.1138 257.585 24.8438 258.425 24.8938C259.965 24.9738 261.935 24.4138 262.915 25.1738C263.835 25.8838 263.155 27.9638 263.175 29.4438C263.215 32.0838 263.185 34.7238 263.185 37.3638H263.195Z" fill="white"/>
<path d="M260.235 20.854C258.035 20.834 256.515 19.344 256.565 17.254C256.615 15.274 258.175 13.854 260.305 13.854C262.475 13.854 264.045 15.264 264.055 17.224C264.065 19.374 262.485 20.874 260.225 20.854H260.235Z" fill="white"/>
</g>
<defs>
<clipPath id="clip0_408_442">
<rect width="323.21" height="58.52" fill="white" transform="translate(0.185059 0.503906)"/>
</clipPath>
</defs>
</svg>
